<?xml version="1.0" encoding="UTF-8" standalone="no"?>
<svg
   xmlns:dc="http://purl.org/dc/elements/1.1/"
   xmlns:cc="http://creativecommons.org/ns#"
   xmlns:rdf="http://www.w3.org/1999/02/22-rdf-syntax-ns#"
   xmlns:svg="http://www.w3.org/2000/svg"
   xmlns="http://www.w3.org/2000/svg"
   xmlns:sodipodi="http://sodipodi.sourceforge.net/DTD/sodipodi-0.dtd"
   xmlns:inkscape="http://www.inkscape.org/namespaces/inkscape"
   sodipodi:docname="etiqueta2.svg"
   inkscape:version="1.0.2-2 (e86c870879, 2021-01-15)"
   id="svg8"
   version="1.1"
   viewBox="0 0 105 148"
   height="148mm"
   width="105mm">
  <defs
     id="defs2">
    <rect
       x="75.784225"
       y="140.04018"
       width="55.184525"
       height="12.85119"
       id="rect863" />
  </defs>
  <sodipodi:namedview
     id="base"
     pagecolor="#ffffff"
     bordercolor="#666666"
     borderopacity="1.0"
     inkscape:pageopacity="0.0"
     inkscape:pageshadow="2"
     inkscape:zoom="2.8"
     inkscape:cx="67.9499"
     inkscape:cy="395.41284"
     inkscape:document-units="mm"
     inkscape:current-layer="layer1"
     inkscape:document-rotation="0"
     showgrid="false"
     inkscape:window-width="1920"
     inkscape:window-height="1017"
     inkscape:window-x="-8"
     inkscape:window-y="-8"
     inkscape:window-maximized="1" />
  <metadata
     id="metadata5">
    <rdf:RDF>
      <cc:Work
         rdf:about="">
        <dc:format>image/svg+xml</dc:format>
        <dc:type
           rdf:resource="http://purl.org/dc/dcmitype/StillImage" />
        <dc:title></dc:title>
      </cc:Work>
    </rdf:RDF>
  </metadata>
  <g
     inkscape:label="Layer 1"
     inkscape:groupmode="layer"
     id="layer1">
    <g
       transform="translate(0.31388319)"
       id="text861"
       style="font-style:normal;font-weight:normal;font-size:7.05556px;line-height:1.25;font-family:sans-serif;text-align:center;white-space:pre;shape-inside:url(#rect863);fill:#000000;fill-opacity:1;stroke:none" />
    <path
       id="rect833-0"
       style="fill:#000000;fill-opacity:1;stroke:none;stroke-width:1.47449;stroke-linejoin:round;stroke-miterlimit:4;stroke-dasharray:none"
       d="m 20.234575,28.987244 h 64.595843 l 2.67595,3.43527 v 7.78077 l -0.016,3.43524 -69.98398,0.34872 0.05221,-3.78396 v -7.78077 l 2.675952,-3.43527 z"
       sodipodi:nodetypes="sccccccccs" />
    <path
       style="fill:#000000;stroke-width:1"
       d="m 67.078729,105.38854 c -3.284367,-0.17745 -6.540501,-0.74789 -9.437683,-1.65338 -0.47588,-0.14873 -0.47588,-0.14873 -1.242604,0.0182 -13.092779,2.8508 -19.573087,2.11678 -31.595627,-3.57884 -1.232342,-0.583812 -1.232342,-0.583812 -1.958042,-0.235783 -1.525288,0.731493 -3.01078,1.395133 -4.418611,1.974003 -1.011946,0.41608 -0.919996,0.39603 -0.91875,0.20036 0.001,-0.16241 0.001,-0.16241 0.781334,-0.47928 1.373094,-0.55759 3.720996,-1.61504 3.472608,-1.56399 -1.552682,0.3191 -2.342024,0.44994 -3.388919,0.56177 -0.300296,0.0321 -0.618007,0.0666 -0.706025,0.0767 -0.160032,0.0184 -0.160032,0.0184 -0.160032,-0.14396 0,-0.16236 0,-0.16236 0.480097,-0.2082 2.717401,-0.2595 4.177873,-0.617544 8.914739,-2.185488 5.801844,-1.920462 8.583696,-2.582767 11.795636,-2.808314 0.421222,-0.02958 0.41258,-0.03646 -0.29214,-0.232617 -6.896129,-1.919522 -13.836476,-1.560216 -20.474717,1.059988 -0.423615,0.167207 -0.423615,0.167207 -0.423615,-0.0095 0,-0.176686 0,-0.176686 0.781334,-0.462529 6.679704,-2.443697 13.272558,-2.785068 19.738916,-1.02206 0.25972,0.07081 0.506108,0.137836 0.547528,0.148944 0.325201,0.08721 -3.07011,-1.661223 -4.311457,-2.220212 C 29.01209,90.26002 23.514628,88.7694 17.74172,88.144797 c -0.415999,-0.04501 -0.361012,-0.340513 0.05648,-0.303539 6.967171,0.617017 14.965316,3.239586 21.536529,7.061765 0.646037,0.375771 0.648095,0.376631 0.847229,0.354195 1.102994,-0.124275 4.644829,-0.220652 6.328953,-0.172219 4.958834,0.142611 8.590398,0.828 14.172327,2.674759 1.135442,0.375656 1.135442,0.375656 1.882733,0.316677 4.780224,-0.377273 8.856517,-0.954956 15.658533,-2.219088 4.705051,-0.874418 6.592803,-1.208683 8.385838,-1.484884 0.951074,-0.146503 0.896034,-0.14845 0.896034,0.03169 0,0.145983 0,0.145983 -0.423615,0.209158 -1.671761,0.249318 -3.986856,0.653215 -7.559171,1.318789 -7.619235,1.419574 -11.229751,1.957724 -15.884303,2.367568 -0.566251,0.04986 -1.035078,0.09618 -1.041844,0.10294 -0.01362,0.01361 1.31923,0.485406 4.56345,1.615352 2.153176,0.74994 2.153176,0.74994 4.236148,0.46848 7.022559,-0.948933 9.623159,-1.195923 13.172272,-1.251034 2.382809,-0.037 2.937055,-0.0012 2.937101,0.189707 3.4e-5,0.15576 3.4e-5,0.15576 -0.856644,0.126009 -2.391228,-0.08304 -5.815731,0.100297 -9.38546,0.502478 -1.548969,0.17451 -6.643165,0.83511 -7.116729,0.92287 -0.156192,0.0289 -0.02675,0.0767 1.581495,0.58384 3.065225,0.96652 5.687807,1.5994 8.140477,1.96444 0.585006,0.0871 0.585006,0.0871 1.032649,-0.0392 1.993674,-0.56247 3.980624,-1.30358 6.069452,-2.26383 0.596939,-0.27442 0.541394,-0.26822 0.527372,-0.0588 -0.01284,0.19169 -0.265575,0.32505 -1.969519,1.0392 -1.20946,0.50691 -3.890784,1.46014 -4.107189,1.46014 -0.02951,0 -0.05365,0.0169 -0.05365,0.0376 0,0.0207 0.02965,0.0377 0.0659,0.0379 0.03624,1.5e-4 0.455621,0.0336 0.931953,0.0744 1.604111,0.13743 3.646232,0.17582 4.848036,0.0911 0.291824,-0.0206 0.291824,-0.0206 0.291824,0.14536 0,0.16593 0,0.16593 -0.68382,0.19067 -1.82369,0.066 -3.864493,-0.0193 -5.734664,-0.23963 -0.60084,-0.0708 -0.60084,-0.0708 -1.242604,0.0949 -4.022413,1.03863 -8.70571,1.51328 -12.766561,1.29389 z m 4.650349,-0.33368 c 2.601082,-0.17464 5.308824,-0.58043 7.493276,-1.12296 0.390197,-0.0969 0.419993,-0.11006 0.301238,-0.13301 -0.07249,-0.014 -0.468707,-0.0845 -0.88049,-0.15673 -2.358888,-0.41355 -4.833585,-1.06444 -8.100145,-2.13048 -1.280258,-0.41781 -1.280258,-0.41781 -1.807424,-0.33414 -1.943477,0.30843 -5.071245,0.91297 -7.305002,1.41192 -1.311629,0.29297 -3.639273,0.84014 -3.659385,0.86023 -0.01815,0.0181 1.304131,0.38616 2.057319,0.5726 3.607044,0.89287 8.132738,1.28555 11.900613,1.03257 z m -25.882337,-0.077 c 2.858244,-0.16399 5.550515,-0.53151 9.102898,-1.24263 1.713071,-0.34293 1.686174,-0.33465 1.38929,-0.42748 -3.927419,-1.22797 -11.461747,-4.698161 -15.543148,-7.158924 -1.042613,-0.628614 -0.830399,-0.578296 -2.014524,-0.477655 -3.570897,0.303496 -5.861261,0.846961 -11.748252,2.787662 -1.605029,0.529113 -2.941708,0.968757 -2.970397,0.976987 -0.05758,0.01652 0.208023,0.149992 1.577175,0.79259 6.924786,3.25006 10.977651,4.43535 16.285637,4.76286 0.493739,0.0305 3.3254,0.0208 3.921321,-0.0134 z m 12.46528,-1.99037 c 3.500091,-0.84182 6.386983,-1.44374 9.384135,-1.9566 0.484555,-0.0829 0.886281,-0.15602 0.89272,-0.16246 0.0064,-0.006 -0.466262,-0.17796 -1.050456,-0.38118 -1.668029,-0.580234 -4.939575,-1.731643 -5.354796,-1.884603 -0.376547,-0.138712 -0.376547,-0.138712 -1.61915,-0.133334 -5.829588,0.02523 -12.326449,-0.816691 -18.986633,-2.460458 -0.357648,-0.08827 -0.650269,-0.155996 -0.650269,-0.150503 0,0.01854 0.954955,0.571987 1.750942,1.014765 3.917573,2.179199 8.750829,4.346433 13.386229,6.002383 1.235716,0.44145 0.938937,0.42666 2.247278,0.11199 z m 2.459553,-4.846837 c 0,-0.0163 -0.139793,-0.07601 -0.310651,-0.132692 -6.864745,-2.277395 -11.592083,-2.902199 -19.062668,-2.519481 -0.48951,0.02508 -0.48951,0.02508 0.320065,0.226082 5.367624,1.332691 10.993116,2.176352 15.871436,2.380254 1.529709,0.06394 3.181818,0.08774 3.181818,0.04584 z"
       id="path895" />
    <path
       id="rect833"
       style="fill:none;stroke:#000000;stroke-width:1.5;stroke-linejoin:round;stroke-miterlimit:4;stroke-dasharray:none"
       d="m 20.865165,29.737244 h 63.256913 c 1.452335,0 2.621544,1.174285 2.621544,2.632927 v 83.259659 c 0,1.45864 -1.169209,2.63293 -2.621544,2.63293 H 20.865165 c -1.452335,0 -2.621543,-1.17429 -2.621543,-2.63293 V 32.370171 c 0,-1.458642 1.169208,-2.632927 2.621543,-2.632927 z" />
    <g
       aria-label="Acervo físico"
       id="text894"
       style="font-style:normal;font-weight:normal;font-size:8px;line-height:1.25;font-family:sans-serif;fill:#ffffff;fill-opacity:1;stroke:none;stroke-width:0.264583">
      <path
         d="m 31.402403,39.303246 h -0.712 v -3.52 q 0,-0.864 0.552,-1.472 0.56,-0.608 1.44,-0.608 h 1.832 v 5.6 h -0.752 v -4.896 h -1.08 q -0.584,0 -0.936,0.344 -0.344,0.344 -0.344,1.096 v 0.68 q 0.448,-0.472 1.28,-0.472 h 0.728 v 0.704 h -0.728 q -0.464,0 -0.76,0.112 -0.288,0.112 -0.52,0.384 z"
         style="font-style:normal;font-variant:normal;font-weight:normal;font-stretch:normal;font-size:8px;font-family:Baumans;-inkscape-font-specification:Baumans;fill:#ffffff;fill-opacity:1;stroke:#ffffff;stroke-width:0.264583;stroke-opacity:1"
         id="path1452" />
      <path
         d="m 38.178402,38.463246 0.48,0.472 q -0.552,0.448 -1.264,0.448 -0.888,0 -1.424,-0.568 -0.536,-0.576 -0.536,-1.432 0,-0.84 0.56,-1.416 0.568,-0.584 1.4,-0.584 0.712,0 1.264,0.448 l -0.472,0.48 q -0.336,-0.256 -0.792,-0.256 -0.552,0 -0.88,0.368 -0.32,0.36 -0.32,0.96 0,0.6 0.32,0.968 0.328,0.36 0.88,0.36 0.464,0 0.784,-0.248 z"
         style="font-style:normal;font-variant:normal;font-weight:normal;font-stretch:normal;font-size:8px;font-family:Baumans;-inkscape-font-specification:Baumans;fill:#ffffff;fill-opacity:1;stroke:#ffffff;stroke-width:0.264583;stroke-opacity:1"
         id="path1454" />
      <path
         d="m 41.218398,35.383246 q 1.36,0.056 1.36,1.128 0,1.336 -1.752,1.336 h -0.328 v -0.616 h 0.384 q 0.536,0 0.744,-0.16 0.208,-0.168 0.208,-0.552 0,-0.248 -0.184,-0.368 -0.184,-0.128 -0.472,-0.128 -0.568,0 -0.896,0.4 -0.32,0.4 -0.32,0.96 0,0.592 0.344,0.96 0.352,0.368 0.912,0.368 0.504,0 0.824,-0.248 l 0.48,0.472 q -0.552,0.448 -1.304,0.448 -0.912,0 -1.456,-0.536 -0.544,-0.536 -0.544,-1.384 0,-0.944 0.536,-1.528 0.536,-0.584 1.464,-0.552 z"
         style="font-style:normal;font-variant:normal;font-weight:normal;font-stretch:normal;font-size:8px;font-family:Baumans;-inkscape-font-specification:Baumans;fill:#ffffff;fill-opacity:1;stroke:#ffffff;stroke-width:0.264583;stroke-opacity:1"
         id="path1456" />
      <path
         d="m 43.258392,39.303246 v -2.184 q 0,-0.92 0.344,-1.272 0.168,-0.176 0.408,-0.264 0.24,-0.088 0.416,-0.104 0.184,-0.016 0.496,-0.016 h 0.704 v 0.672 h -0.848 q -0.16,0 -0.248,0.008 -0.088,0.008 -0.208,0.056 -0.12,0.048 -0.208,0.152 -0.152,0.192 -0.152,0.768 v 2.184 z"
         style="font-style:normal;font-variant:normal;font-weight:normal;font-stretch:normal;font-size:8px;font-family:Baumans;-inkscape-font-specification:Baumans;fill:#ffffff;fill-opacity:1;stroke:#ffffff;stroke-width:0.264583;stroke-opacity:1"
         id="path1458" />
      <path
         d="m 47.522382,39.391246 q -0.688,-0.648 -1.016,-1.432 -0.32,-0.784 -0.64,-2.496 h 0.736 q 0.312,1.928 0.92,2.92 0.608,-0.992 0.92,-2.92 h 0.736 q -0.32,1.712 -0.648,2.496 -0.32,0.784 -1.008,1.432 z"
         style="font-style:normal;font-variant:normal;font-weight:normal;font-stretch:normal;font-size:8px;font-family:Baumans;-inkscape-font-specification:Baumans;fill:#ffffff;fill-opacity:1;stroke:#ffffff;stroke-width:0.264583;stroke-opacity:1"
         id="path1460" />
      <path
         d="m 50.298372,35.967246 q 0.56,-0.584 1.4,-0.584 0.408,0 0.76,0.16 0.36,0.152 0.624,0.424 0.272,0.272 0.424,0.64 0.152,0.36 0.152,0.776 0,0.416 -0.152,0.784 -0.144,0.36 -0.408,0.632 -0.264,0.272 -0.624,0.432 -0.36,0.152 -0.776,0.152 -0.424,0 -0.784,-0.152 -0.352,-0.16 -0.616,-0.432 -0.264,-0.272 -0.416,-0.632 -0.144,-0.368 -0.144,-0.784 0,-0.848 0.56,-1.416 z m 1.4,0.088 q -0.56,0 -0.904,0.368 -0.336,0.368 -0.336,0.96 0,0.592 0.336,0.96 0.344,0.368 0.904,0.368 0.568,0 0.904,-0.368 0.336,-0.376 0.336,-0.96 0,-0.584 -0.336,-0.952 -0.336,-0.376 -0.904,-0.376 z"
         style="font-style:normal;font-variant:normal;font-weight:normal;font-stretch:normal;font-size:8px;font-family:Baumans;-inkscape-font-specification:Baumans;fill:#ffffff;fill-opacity:1;stroke:#ffffff;stroke-width:0.264583;stroke-opacity:1"
         id="path1462" />
      <path
         d="m 58.25037,36.135246 h -0.92 v 3.168 h -0.72 v -3.168 h -0.544 l 0.32,-0.672 h 0.224 q 0,-0.816 0.552,-1.288 0.552,-0.48 1.408,-0.48 v 0.672 q -1.24,0 -1.24,1.096 h 0.92 z"
         style="font-style:normal;font-variant:normal;font-weight:normal;font-stretch:normal;font-size:8px;font-family:Baumans;-inkscape-font-specification:Baumans;fill:#ffffff;fill-opacity:1;stroke:#ffffff;stroke-width:0.264583;stroke-opacity:1"
         id="path1464" />
      <path
         d="m 59.93037,39.303246 h -0.704 v -3.168 h -0.656 l 0.32,-0.672 h 1.04 z m -0.528,-4.2 -0.416,-0.336 0.944,-1.184 0.496,0.496 z"
         style="font-style:normal;font-variant:normal;font-weight:normal;font-stretch:normal;font-size:8px;font-family:Baumans;-inkscape-font-specification:Baumans;fill:#ffffff;fill-opacity:1;stroke:#ffffff;stroke-width:0.264583;stroke-opacity:1"
         id="path1466" />
      <path
         d="m 63.666369,35.463246 v 0.672 h -1.416 q -0.232,0 -0.4,0.088 -0.168,0.088 -0.168,0.248 0,0.096 0.04,0.176 0.04,0.072 0.088,0.12 0.056,0.048 0.16,0.104 0.112,0.048 0.168,0.072 0.064,0.016 0.512,0.16 0.448,0.144 0.664,0.24 0.216,0.096 0.328,0.264 0.12,0.16 0.152,0.32 0.032,0.152 0.032,0.304 0,1.072 -1.472,1.072 h -1.384 v -0.672 h 1.384 q 0.752,0 0.752,-0.4 0,-0.192 -0.224,-0.32 -0.216,-0.128 -0.536,-0.216 -0.312,-0.088 -0.632,-0.2 -0.312,-0.12 -0.536,-0.376 -0.216,-0.264 -0.216,-0.648 0,-0.488 0.376,-0.744 0.376,-0.264 0.912,-0.264 z"
         style="font-style:normal;font-variant:normal;font-weight:normal;font-stretch:normal;font-size:8px;font-family:Baumans;-inkscape-font-specification:Baumans;fill:#ffffff;fill-opacity:1;stroke:#ffffff;stroke-width:0.264583;stroke-opacity:1"
         id="path1468" />
      <path
         d="m 65.666362,39.303246 h -0.704 v -3.168 h -0.656 l 0.32,-0.672 h 1.04 z m -0.736,-4.64 q -0.104,-0.136 -0.104,-0.296 0,-0.16 0.104,-0.288 0.104,-0.136 0.32,-0.136 0.216,0 0.32,0.136 0.104,0.128 0.104,0.288 0,0.16 -0.104,0.296 -0.104,0.128 -0.32,0.128 -0.216,0 -0.32,-0.128 z"
         style="font-style:normal;font-variant:normal;font-weight:normal;font-stretch:normal;font-size:8px;font-family:Baumans;-inkscape-font-specification:Baumans;fill:#ffffff;fill-opacity:1;stroke:#ffffff;stroke-width:0.264583;stroke-opacity:1"
         id="path1470" />
      <path
         d="m 69.362362,38.463246 0.48,0.472 q -0.552,0.448 -1.264,0.448 -0.888,0 -1.424,-0.568 -0.536,-0.576 -0.536,-1.432 0,-0.84 0.56,-1.416 0.568,-0.584 1.4,-0.584 0.712,0 1.264,0.448 l -0.472,0.48 q -0.336,-0.256 -0.792,-0.256 -0.552,0 -0.88,0.368 -0.32,0.36 -0.32,0.96 0,0.6 0.32,0.968 0.328,0.36 0.88,0.36 0.464,0 0.784,-0.248 z"
         style="font-style:normal;font-variant:normal;font-weight:normal;font-stretch:normal;font-size:8px;font-family:Baumans;-inkscape-font-specification:Baumans;fill:#ffffff;fill-opacity:1;stroke:#ffffff;stroke-width:0.264583;stroke-opacity:1"
         id="path1472" />
      <path
         d="m 70.962358,35.967246 q 0.56,-0.584 1.4,-0.584 0.408,0 0.76,0.16 0.36,0.152 0.624,0.424 0.272,0.272 0.424,0.64 0.152,0.36 0.152,0.776 0,0.416 -0.152,0.784 -0.144,0.36 -0.408,0.632 -0.264,0.272 -0.624,0.432 -0.36,0.152 -0.776,0.152 -0.424,0 -0.784,-0.152 -0.352,-0.16 -0.616,-0.432 -0.264,-0.272 -0.416,-0.632 -0.144,-0.368 -0.144,-0.784 0,-0.848 0.56,-1.416 z m 1.4,0.088 q -0.56,0 -0.904,0.368 -0.336,0.368 -0.336,0.96 0,0.592 0.336,0.96 0.344,0.368 0.904,0.368 0.568,0 0.904,-0.368 0.336,-0.376 0.336,-0.96 0,-0.584 -0.336,-0.952 -0.336,-0.376 -0.904,-0.376 z"
         style="font-style:normal;font-variant:normal;font-weight:normal;font-stretch:normal;font-size:8px;font-family:Baumans;-inkscape-font-specification:Baumans;fill:#ffffff;fill-opacity:1;stroke:#ffffff;stroke-width:0.264583;stroke-opacity:1"
         id="path1474" />
    </g>
    <path
       id="rect833-3"
       style="fill:none;stroke:#e0e0e0;stroke-width:0.25;stroke-linejoin:round;stroke-miterlimit:4;stroke-dasharray:none;stroke-opacity:1"
       d="m 41.752922,45.612236 h 21.506913 c 1.452335,0 2.621543,1.174286 2.621543,2.632927 v 21.484146 c 0,1.458641 -1.169208,2.632927 -2.621543,2.632927 H 41.752922 c -1.452335,0 -2.621544,-1.174286 -2.621544,-2.632927 V 48.245163 c 0,-1.458641 1.169209,-2.632927 2.621544,-2.632927 z" />
    <path
       style="fill:#000000;stroke-width:1"
       d="m 45.181029,116.02129 c -0.238638,-0.0503 -0.385987,-0.1746 -0.472734,-0.3988 -0.06728,-0.17388 -0.08452,-0.69896 -0.03085,-0.93992 0.07537,-0.3384 0.263922,-0.49881 0.609848,-0.51881 0.09911,-0.006 0.223987,0.002 0.287792,0.0169 0.197008,0.0472 0.353077,0.19595 0.390351,0.37201 0.01513,0.0715 0.01456,0.0721 -0.07032,0.0721 -0.079,0 -0.08894,-0.007 -0.129391,-0.0942 -0.06099,-0.13118 -0.197209,-0.19793 -0.403885,-0.19793 -0.361759,0 -0.492312,0.15254 -0.528129,0.61707 -0.0317,0.41105 0.06278,0.73395 0.246152,0.8413 0.121625,0.0712 0.320385,0.0936 0.466915,0.0526 0.101158,-0.0283 0.257175,-0.15178 0.279204,-0.22099 0.009,-0.0284 0.02215,-0.027 0.09089,0.01 l 0.08031,0.0432 -0.04885,0.0872 c -0.05501,0.0982 -0.145291,0.17444 -0.266415,0.22499 -0.10201,0.0426 -0.371836,0.0605 -0.500884,0.0333 z m 2.292289,-3.6e-4 c -0.403532,-0.0799 -0.557947,-0.37068 -0.535434,-1.00819 0.01618,-0.45825 0.104375,-0.6484 0.359939,-0.77605 0.124176,-0.062 0.14967,-0.0665 0.37733,-0.0658 0.290518,8.9e-4 0.40164,0.0427 0.544726,0.20512 0.135673,0.15397 0.185466,0.34228 0.185947,0.70322 5.33e-4,0.39226 -0.05862,0.61411 -0.205961,0.77254 -0.142431,0.15315 -0.448039,0.22429 -0.726547,0.16913 z m 0.377993,-0.17866 c 0.140421,-0.0353 0.245068,-0.13208 0.304122,-0.28118 0.04418,-0.11156 0.05045,-0.16766 0.05137,-0.45966 8.21e-4,-0.26327 -0.0071,-0.35605 -0.03829,-0.44513 -0.07406,-0.21185 -0.24907,-0.32375 -0.506357,-0.32375 -0.239131,0 -0.397394,0.0914 -0.473496,0.2733 -0.100499,0.24028 -0.08865,0.78154 0.02211,1.00996 0.102479,0.21133 0.351145,0.29925 0.640534,0.22646 z m -8.954666,-0.73883 v -0.90001 h 0.406671 c 0.31282,0 0.430481,0.008 0.509841,0.0351 0.297146,0.10115 0.383198,0.52436 0.147581,0.72583 l -0.08861,0.0758 0.06726,0.0278 c 0.09394,0.0389 0.193708,0.15971 0.223694,0.27096 0.04472,0.16591 -0.01609,0.40948 -0.12734,0.50998 -0.02311,0.0209 -0.09159,0.0606 -0.152185,0.0884 -0.100331,0.0459 -0.149315,0.0511 -0.548539,0.0583 l -0.43837,0.008 z m 0.8941,0.68821 c 0.128782,-0.0548 0.179464,-0.13193 0.188152,-0.28628 0.0061,-0.10904 -0.0016,-0.15271 -0.03686,-0.20885 -0.08046,-0.12801 -0.151578,-0.14924 -0.529341,-0.15798 l -0.338489,-0.008 v 0.34567 0.34567 h 0.322555 c 0.223715,0 0.344441,-0.009 0.393978,-0.0304 z m 0.02112,-0.91792 c 0.06676,-0.0667 0.0725,-0.0837 0.0725,-0.2144 0,-0.24494 -0.102646,-0.30069 -0.55363,-0.30069 h -0.256523 v 0.30093 0.30093 l 0.332575,-0.007 0.332575,-0.007 z m 0.727283,0.2277 v -0.898 h 0.08878 0.08878 v 0.898 0.89801 h -0.08878 -0.08878 z m 0.621487,-10e-4 v -0.89928 l 0.09318,0.007 0.09318,0.007 0.506534,0.69808 c 0.278595,0.38394 0.51883,0.71037 0.533857,0.7254 0.02163,0.0216 0.02604,-0.12491 0.02119,-0.70363 l -0.0061,-0.73093 h 0.100468 0.100468 v 0.898 0.89801 h -0.09444 -0.09444 l -0.532597,-0.73419 -0.532598,-0.73419 -0.0058,0.73419 -0.0058,0.73419 h -0.08848 -0.08848 z m 1.773644,0.72865 c 0.03538,-0.0952 0.164239,-0.44246 0.286348,-0.77173 0.122109,-0.32926 0.24365,-0.65604 0.270092,-0.72616 l 0.04807,-0.12749 H 43.6571 c 0.108945,0 0.120052,0.005 0.140282,0.061 0.01208,0.0335 0.15789,0.42864 0.324013,0.878 0.166124,0.44936 0.302043,0.82602 0.302043,0.83703 0,0.011 -0.04269,0.02 -0.09486,0.02 h -0.09486 l -0.06344,-0.17185 c -0.03489,-0.0945 -0.0829,-0.22446 -0.106696,-0.28877 l -0.04326,-0.11694 -0.36999,0.006 -0.36999,0.006 -0.103801,0.27717 -0.1038,0.27716 -0.101401,0.007 -0.101401,0.007 z m 1.007982,-0.57771 c 0.0054,-0.009 -0.05822,-0.20122 -0.14129,-0.42683 -0.08307,-0.22561 -0.15596,-0.39523 -0.161975,-0.37694 -0.006,0.0183 -0.07169,0.19896 -0.145947,0.40149 -0.07426,0.20253 -0.135013,0.37964 -0.135013,0.39357 0,0.0288 0.567482,0.0373 0.584225,0.009 z m 2.434428,-0.14967 v -0.898 h 0.08878 0.08878 v 0.898 0.89801 h -0.08878 -0.08878 z m 2.419361,-10e-4 v -0.89928 l 0.09415,0.007 0.09415,0.007 0.510689,0.70356 c 0.280881,0.38696 0.52068,0.71324 0.532888,0.72508 0.01479,0.0143 0.02015,-0.22234 0.01606,-0.7091 l -0.0061,-0.73062 h 0.100468 0.100468 v 0.898 0.89801 l -0.09433,-1.6e-4 -0.09433,-1.6e-4 -0.532704,-0.73564 -0.532703,-0.73565 -0.0058,0.73579 -0.0058,0.73579 h -0.08848 -0.08849 v -0.89927 z m 1.733304,0.83951 c 0.01322,-0.0342 0.157272,-0.42139 0.320115,-0.86041 0.162843,-0.43903 0.302877,-0.81569 0.311189,-0.83703 0.01174,-0.0302 0.04125,-0.0388 0.132439,-0.0388 0.0912,0 0.120684,0.009 0.132402,0.0388 0.0083,0.0213 0.155047,0.41781 0.32613,0.88104 0.171079,0.46323 0.315777,0.84987 0.32155,0.8592 0.0058,0.009 -0.03806,0.017 -0.09741,0.017 h -0.107906 l -0.04122,-0.11641 c -0.02267,-0.064 -0.07055,-0.19398 -0.106409,-0.28878 l -0.06519,-0.17236 -0.369028,0.006 -0.369026,0.006 -0.103622,0.27717 -0.10362,0.27716 -0.102214,0.007 -0.102215,0.007 z m 1.046904,-0.68504 c 0.01214,-0.0121 -0.01827,-0.10223 -0.216335,-0.641 -0.04035,-0.10976 -0.07844,-0.18459 -0.08466,-0.1663 -0.0062,0.0183 -0.07216,0.19997 -0.146553,0.40373 -0.07439,0.20375 -0.135258,0.38086 -0.135258,0.39357 0,0.0246 0.558646,0.0341 0.582806,0.01 z m 0.771148,-0.1532 v -0.898 h 0.09988 0.09988 v 0.80931 0.80931 h 0.410626 0.410625 v 0.0887 0.0887 H 52.85791 52.347402 Z m -0.110516,-1.69901 c -0.478281,-0.0553 -0.786938,-0.245 -0.944152,-0.58023 -0.141839,-0.30245 -0.14856,-0.36995 -0.159969,-1.60657 l -0.01028,-1.11419 h 0.533827 0.533824 l 0.0065,1.13636 0.0065,1.13637 0.05549,0.0982 c 0.135891,0.24053 0.549135,0.27223 0.704398,0.054 0.08906,-0.12516 0.0944,-0.2005 0.09453,-1.33296 l 1.24e-4,-1.09202 h 0.532704 0.532703 l -2.22e-4,0.99224 c 0,0.54573 -0.01019,1.08204 -0.02242,1.1918 -0.08005,0.71844 -0.400107,1.03809 -1.120492,1.11908 -0.231331,0.026 -0.506637,0.0252 -0.743102,-0.002 z m -14.36126,-1.67182 v -1.62971 h 0.532703 0.532704 v 1.62971 1.62971 H 38.408333 37.87563 Z m 2.369603,0.3714 -0.0057,-1.25832 -0.460566,-0.006 -0.460567,-0.006 v -0.36541 -0.3654 h 1.453836 1.453837 v 0.36585 0.36586 h -0.455018 -0.455017 v 1.26386 1.26385 h -0.53252 -0.532521 z m 2.159401,-0.20605 c 0.303285,-0.8054 0.572508,-1.49844 0.598274,-1.54008 0.136862,-0.22122 0.27618,-0.26136 0.872489,-0.25139 0.447002,0.007 0.448465,0.008 0.564615,0.072 0.07763,0.043 0.137954,0.0984 0.180945,0.1663 0.03547,0.056 0.304466,0.74042 0.597767,1.52091 0.293301,0.78049 0.540058,1.43653 0.548348,1.45787 0.01411,0.0363 -0.02023,0.0388 -0.536651,0.0387 l -0.551725,-8e-5 -0.134726,-0.37132 -0.134727,-0.37131 -0.578075,-0.006 c -0.445838,-0.005 -0.58307,5.2e-4 -0.599911,0.0222 -0.01201,0.0154 -0.0795,0.18523 -0.149978,0.3773 l -0.128143,0.34922 h -0.549965 -0.549965 z m 1.835685,0.0397 c -0.0057,-0.0152 -0.07763,-0.25222 -0.159914,-0.52661 -0.08228,-0.27439 -0.163846,-0.52134 -0.181247,-0.54878 -0.03462,-0.0546 -0.122714,-0.067 -0.157999,-0.0222 -0.02293,0.0291 -0.338732,1.05381 -0.338732,1.0991 0,0.0192 0.112938,0.0262 0.424099,0.0262 0.329977,0 0.421811,-0.006 0.413793,-0.0277 z m 1.825625,-0.2051 v -1.62971 h 0.532704 0.532703 v 1.62971 1.62971 h -0.532703 -0.532704 z m 1.664698,-0.002 v -1.63196 l 0.99327,0.0106 c 1.103238,0.0118 1.177996,0.0199 1.459386,0.15849 0.30972,0.15251 0.47924,0.40656 0.526355,0.78882 0.0673,0.54605 -0.106066,0.97913 -0.4694,1.17258 -0.241226,0.12844 -0.421791,0.16114 -0.961441,0.17413 l -0.482763,0.0116 v 0.47382 0.47382 h -0.532703 -0.532704 z m 1.656018,-0.0638 c 0.193671,-0.0574 0.283933,-0.19164 0.283722,-0.4218 -3.11e-4,-0.33733 -0.183146,-0.46283 -0.655276,-0.44981 l -0.230155,0.006 -0.0061,0.4206 c -0.0033,0.23133 -0.0012,0.43338 0.0049,0.449 0.01588,0.0414 0.459696,0.0382 0.602914,-0.004 z m -23.829796,0.066 1.609093,-1.60754 h 1.523723 1.523723 l -0.968766,1.60653 -0.968766,1.60652 -2.16405,0.001 -2.164051,0.001 z m 6.501686,0.005 -0.967259,-1.60145 1.521985,-0.006 1.521985,-0.006 1.609363,1.6077 1.609362,1.60769 -2.164088,-5.4e-4 -2.164089,-5.4e-4 z m -4.681616,-3.57484 v -1.31929 h 1.420542 1.420542 v 1.31929 1.31929 h -1.420542 -1.420542 z m 3.706728,0 v -1.31929 h 1.420542 1.420542 v 1.31929 1.31929 h -1.420542 -1.420542 z"
       id="path893" />
    <g
       aria-label="|ENCA.DT"
       id="text1417"
       style="font-style:normal;font-weight:normal;font-size:7.096px;line-height:1.25;font-family:sans-serif;fill:#000000;fill-opacity:1;stroke:none;stroke-width:0.264583">
      <path
         d="m 56.327783,110.10496 h 0.751871 v 5.8937 h -0.751871 z"
         style="font-style:normal;font-variant:normal;font-weight:normal;font-stretch:normal;font-family:'Tw Cen MT Condensed Extra Bold';-inkscape-font-specification:'Tw Cen MT Condensed Extra Bold, ';stroke-width:0.264583"
         id="path1480" />
      <path
         d="m 59.283294,110.41679 h 2.12395 v 0.98402 h -1.074102 v 0.85235 h 0.932043 v 0.95976 h -0.932043 v 0.84196 h 1.081031 v 0.98748 h -2.130879 z"
         style="font-style:normal;font-variant:normal;font-weight:normal;font-stretch:normal;font-family:'Tw Cen MT Condensed Extra Bold';-inkscape-font-specification:'Tw Cen MT Condensed Extra Bold, ';stroke-width:0.264583"
         id="path1482" />
      <path
         d="m 62.242271,110.41679 h 1.060242 l 1.333965,2.66793 -0.03811,-0.49894 v -2.16899 h 1.049848 v 4.62557 h -1.077567 l -1.306246,-2.62635 0.02772,0.57516 v 2.05119 h -1.049848 z"
         style="font-style:normal;font-variant:normal;font-weight:normal;font-stretch:normal;font-family:'Tw Cen MT Condensed Extra Bold';-inkscape-font-specification:'Tw Cen MT Condensed Extra Bold, ';stroke-width:0.264583"
         id="path1484" />
      <path
         d="m 69.071478,113.95093 v 1.09836 q -0.332625,0.10741 -0.595953,0.10741 -0.911254,0 -1.479488,-0.68258 -0.56477,-0.68604 -0.56477,-1.80171 0,-1.03599 0.571699,-1.70817 0.5717,-0.67565 1.44484,-0.67565 0.339555,0 0.623672,0.0901 v 1.10182 q -0.301441,-0.10048 -0.568234,-0.10048 -0.408852,0 -0.67911,0.3742 -0.270257,0.3742 -0.270257,0.95283 0,0.62368 0.270257,0.98748 0.273723,0.36035 0.727618,0.36035 0.22175,0 0.519726,-0.10395 z"
         style="font-style:normal;font-variant:normal;font-weight:normal;font-stretch:normal;font-family:'Tw Cen MT Condensed Extra Bold';-inkscape-font-specification:'Tw Cen MT Condensed Extra Bold, ';stroke-width:0.264583"
         id="path1486" />
      <path
         d="m 72.986752,115.04236 h -1.091425 l -0.176708,-0.77266 h -1.10875 l -0.183636,0.77266 h -1.070637 l 1.226555,-4.62557 h 1.178047 z m -1.469093,-1.60422 q -0.23561,-1.03253 -0.353415,-1.96457 h -0.01386 q -0.124734,0.95976 -0.349949,1.96457 z"
         style="font-style:normal;font-variant:normal;font-weight:normal;font-stretch:normal;font-family:'Tw Cen MT Condensed Extra Bold';-inkscape-font-specification:'Tw Cen MT Condensed Extra Bold, ';stroke-width:0.264583"
         id="path1488" />
      <path
         d="m 73.433717,114.5746 q 0,-0.2356 0.166312,-0.40538 0.169778,-0.16978 0.408852,-0.16978 0.239074,0 0.408852,0.16978 0.173242,0.16631 0.173242,0.39845 0,0.23215 -0.176707,0.40886 -0.173243,0.17324 -0.405387,0.17324 -0.239074,0 -0.408852,-0.16631 -0.166312,-0.16978 -0.166312,-0.40886 z"
         style="font-style:normal;font-variant:normal;font-weight:normal;font-stretch:normal;font-family:'Tw Cen MT Condensed Extra Bold';-inkscape-font-specification:'Tw Cen MT Condensed Extra Bold, ';stroke-width:0.264583"
         id="path1490" />
      <path
         d="m 75.439862,110.41679 h 0.980551 q 1.018664,0 1.548785,0.5821 0.530121,0.57862 0.530121,1.6943 0,0.84543 -0.263328,1.36515 -0.259863,0.51973 -0.731082,0.75187 -0.467754,0.23215 -1.035988,0.23215 h -1.029059 z m 1.049848,0.98402 v 2.65407 q 0.478148,-0.0416 0.675644,-0.33609 0.197496,-0.29798 0.197496,-0.97709 0,-0.40192 -0.0693,-0.67911 -0.0693,-0.28065 -0.20789,-0.42964 -0.135129,-0.15245 -0.266793,-0.1871 -0.128199,-0.0346 -0.32916,-0.045 z"
         style="font-style:normal;font-variant:normal;font-weight:normal;font-stretch:normal;font-family:'Tw Cen MT Condensed Extra Bold';-inkscape-font-specification:'Tw Cen MT Condensed Extra Bold, ';stroke-width:0.264583"
         id="path1492" />
      <path
         d="m 78.859663,110.41679 h 2.505082 v 1.05678 h -0.724153 v 3.56879 h -1.063707 v -3.56879 h -0.717222 z"
         style="font-style:normal;font-variant:normal;font-weight:normal;font-stretch:normal;font-family:'Tw Cen MT Condensed Extra Bold';-inkscape-font-specification:'Tw Cen MT Condensed Extra Bold, ';stroke-width:0.264583"
         id="path1494" />
    </g>
  </g>
</svg>
